# xmcd CD database file
#
# Track frame offsets:
#	150
#	16014
#	32779
#	48164
#	74464
#	91036
#	104336
#	122333
#	138778
#	150597
#	163736
#	177293
#	193237
#	211729
#	225156
#	238383
#	250987
#	259015
#
# Disc length: 3637 seconds
#
# Revision: 2
# Processed by: cddbd v1.4PL0 Copyright (c) Steve Scherf et al.
# Submitted via: CDex 1.50beta10
#
DISCID=e30e3312
DTITLE=Various Artist - No. 1 Hits CD 3
DYEAR=1900
DGENRE=
TTITLE0=10 CC/I'm Not In Love
TTITLE1=Mungo Jerry/In The Summertime
TTITLE2=Tina Charles/I Love To Love You
TTITLE3=The Sugarhill Gang/Rapper's Delight (Short Version)
TTITLE4=The Three Degrees/T.S.O.P. (The Sound Of Philadelphia)
TTITLE5=Mud/Oh Boy
TTITLE6=Stories/Brother Louie
TTITLE7=The Sweet/Fox On The Run
TTITLE8=Chris Andrews/Yesterday Man
TTITLE9=The Turtles/Happy Together
TTITLE10=Looking Glass/Brandy
TTITLE11=The Chi-Lites/Oh Girl
TTITLE12=Donovan/Sunshine Superman
TTITLE13=Daniel Boone/Beautiful Sunday
TTITLE14=The Brotherhood Of Man/Figaro
TTITLE15=Sam Cooke/You Send Me
TTITLE16=Maurice Williams and The Zodiacs/Stay
TTITLE17=Donovan/Atlantis
EXTD=
EXTT0=
EXTT1=
EXTT2=
EXTT3=
EXTT4=
EXTT5=
EXTT6=
EXTT7=
EXTT8=
EXTT9=
EXTT10=
EXTT11=
EXTT12=
EXTT13=
EXTT14=
EXTT15=
EXTT16=
EXTT17=
PLAYORDER=
